<mxfile host="Electron" agent="Mozilla/5.0 (Windows NT 10.0; Win64; x64) AppleWebKit/537.36 (KHTML, like Gecko) draw.io/26.0.4 Chrome/128.0.6613.186 Electron/32.2.5 Safari/537.36" version="26.0.4">
  <diagram name="第 1 页" id="on08qFegtGYiwILe9BPG">
    <mxGraphModel dx="1450" dy="1021" grid="0" gridSize="10" guides="1" tooltips="1" connect="1" arrows="1" fold="1" page="0" pageScale="1" pageWidth="827" pageHeight="1169" math="0" shadow="0">
      <root>
        <mxCell id="0" />
        <mxCell id="1" parent="0" />
        <mxCell id="XvWAkeNSMlZ6YnPYbUA_-1" value="" style="rounded=0;whiteSpace=wrap;html=1;fillColor=#fff2cc;strokeColor=#d6b656;" vertex="1" parent="1">
          <mxGeometry x="-163" y="-110" width="485" height="405" as="geometry" />
        </mxCell>
        <mxCell id="XvWAkeNSMlZ6YnPYbUA_-24" style="edgeStyle=orthogonalEdgeStyle;rounded=0;orthogonalLoop=1;jettySize=auto;html=1;curved=1;exitX=0;exitY=0.25;exitDx=0;exitDy=0;entryX=0.5;entryY=0;entryDx=0;entryDy=0;" edge="1" parent="1" source="XvWAkeNSMlZ6YnPYbUA_-9" target="XvWAkeNSMlZ6YnPYbUA_-8">
          <mxGeometry relative="1" as="geometry">
            <Array as="points">
              <mxPoint x="114" y="18" />
              <mxPoint x="-13" y="18" />
              <mxPoint x="-13" y="66" />
              <mxPoint x="-55" y="66" />
            </Array>
          </mxGeometry>
        </mxCell>
        <mxCell id="XvWAkeNSMlZ6YnPYbUA_-25" value="&lt;font style=&quot;font-size: 16px;&quot;&gt;&lt;b&gt;unpark&lt;/b&gt;&lt;/font&gt;" style="edgeLabel;html=1;align=center;verticalAlign=middle;resizable=0;points=[];" vertex="1" connectable="0" parent="XvWAkeNSMlZ6YnPYbUA_-24">
          <mxGeometry x="-0.0997" y="11" relative="1" as="geometry">
            <mxPoint x="-7" y="-2" as="offset" />
          </mxGeometry>
        </mxCell>
        <mxCell id="XvWAkeNSMlZ6YnPYbUA_-9" value="" style="rounded=0;whiteSpace=wrap;html=1;fillColor=#dae8fc;strokeColor=#6c8ebf;" vertex="1" parent="1">
          <mxGeometry x="114" y="-19" width="160" height="87" as="geometry" />
        </mxCell>
        <mxCell id="XvWAkeNSMlZ6YnPYbUA_-2" value="&lt;font style=&quot;font-size: 16px;&quot;&gt;&lt;b&gt;Parker&lt;/b&gt;&lt;/font&gt;" style="text;html=1;align=center;verticalAlign=middle;resizable=0;points=[];autosize=1;strokeColor=none;fillColor=none;" vertex="1" parent="1">
          <mxGeometry x="45.5" y="-94" width="68" height="31" as="geometry" />
        </mxCell>
        <mxCell id="XvWAkeNSMlZ6YnPYbUA_-4" value="&lt;span style=&quot;font-size: 14px;&quot;&gt;&lt;b&gt;_mutex&lt;/b&gt;&lt;/span&gt;" style="rounded=0;whiteSpace=wrap;html=1;fillColor=#dae8fc;strokeColor=#6c8ebf;" vertex="1" parent="1">
          <mxGeometry x="-112" y="215" width="114" height="48" as="geometry" />
        </mxCell>
        <mxCell id="XvWAkeNSMlZ6YnPYbUA_-7" value="&lt;font style=&quot;font-size: 16px;&quot;&gt;&lt;b&gt;Thread&lt;/b&gt;&lt;/font&gt;" style="rounded=0;whiteSpace=wrap;html=1;fillColor=#f5f5f5;strokeColor=#666666;gradientColor=#b3b3b3;" vertex="1" parent="1">
          <mxGeometry x="134" y="19" width="120" height="37.5" as="geometry" />
        </mxCell>
        <mxCell id="XvWAkeNSMlZ6YnPYbUA_-12" style="edgeStyle=orthogonalEdgeStyle;rounded=0;orthogonalLoop=1;jettySize=auto;html=1;entryX=0;entryY=0.5;entryDx=0;entryDy=0;curved=1;" edge="1" parent="1" source="XvWAkeNSMlZ6YnPYbUA_-8" target="XvWAkeNSMlZ6YnPYbUA_-9">
          <mxGeometry relative="1" as="geometry" />
        </mxCell>
        <mxCell id="XvWAkeNSMlZ6YnPYbUA_-13" value="&lt;font style=&quot;font-size: 16px;&quot;&gt;&lt;b&gt;park&lt;/b&gt;&lt;/font&gt;" style="edgeLabel;html=1;align=center;verticalAlign=middle;resizable=0;points=[];" vertex="1" connectable="0" parent="XvWAkeNSMlZ6YnPYbUA_-12">
          <mxGeometry x="-0.001" y="3" relative="1" as="geometry">
            <mxPoint x="3" y="2" as="offset" />
          </mxGeometry>
        </mxCell>
        <mxCell id="XvWAkeNSMlZ6YnPYbUA_-15" style="edgeStyle=orthogonalEdgeStyle;rounded=0;orthogonalLoop=1;jettySize=auto;html=1;entryX=0;entryY=0.5;entryDx=0;entryDy=0;" edge="1" parent="1" source="XvWAkeNSMlZ6YnPYbUA_-8" target="XvWAkeNSMlZ6YnPYbUA_-10">
          <mxGeometry relative="1" as="geometry" />
        </mxCell>
        <mxCell id="XvWAkeNSMlZ6YnPYbUA_-16" value="&lt;font style=&quot;font-size: 16px;&quot;&gt;&lt;b&gt;unpark&lt;/b&gt;&lt;/font&gt;" style="edgeLabel;html=1;align=center;verticalAlign=middle;resizable=0;points=[];" vertex="1" connectable="0" parent="XvWAkeNSMlZ6YnPYbUA_-15">
          <mxGeometry x="-0.0373" y="-1" relative="1" as="geometry">
            <mxPoint x="1" y="-3" as="offset" />
          </mxGeometry>
        </mxCell>
        <mxCell id="XvWAkeNSMlZ6YnPYbUA_-8" value="&lt;b&gt;&lt;font style=&quot;font-size: 14px;&quot;&gt;_counter = 0&lt;/font&gt;&lt;/b&gt;" style="rounded=0;whiteSpace=wrap;html=1;fillColor=#dae8fc;strokeColor=#6c8ebf;" vertex="1" parent="1">
          <mxGeometry x="-112" y="108" width="114" height="48" as="geometry" />
        </mxCell>
        <mxCell id="XvWAkeNSMlZ6YnPYbUA_-21" style="edgeStyle=orthogonalEdgeStyle;rounded=0;orthogonalLoop=1;jettySize=auto;html=1;entryX=0.5;entryY=1;entryDx=0;entryDy=0;" edge="1" parent="1" source="XvWAkeNSMlZ6YnPYbUA_-10" target="XvWAkeNSMlZ6YnPYbUA_-8">
          <mxGeometry relative="1" as="geometry">
            <Array as="points">
              <mxPoint x="217" y="186" />
              <mxPoint x="-55" y="186" />
            </Array>
          </mxGeometry>
        </mxCell>
        <mxCell id="XvWAkeNSMlZ6YnPYbUA_-22" value="&lt;font style=&quot;font-size: 16px;&quot;&gt;&lt;b&gt;park&lt;/b&gt;&lt;/font&gt;" style="edgeLabel;html=1;align=center;verticalAlign=middle;resizable=0;points=[];" vertex="1" connectable="0" parent="XvWAkeNSMlZ6YnPYbUA_-21">
          <mxGeometry x="0.0373" y="1" relative="1" as="geometry">
            <mxPoint x="2" y="-2" as="offset" />
          </mxGeometry>
        </mxCell>
        <mxCell id="XvWAkeNSMlZ6YnPYbUA_-10" value="&lt;b&gt;&lt;font style=&quot;font-size: 14px;&quot;&gt;_counter = 1&lt;/font&gt;&lt;/b&gt;" style="rounded=0;whiteSpace=wrap;html=1;fillColor=#dae8fc;strokeColor=#6c8ebf;" vertex="1" parent="1">
          <mxGeometry x="160" y="108" width="114" height="48" as="geometry" />
        </mxCell>
        <mxCell id="XvWAkeNSMlZ6YnPYbUA_-14" value="&lt;b&gt;&lt;font style=&quot;font-size: 16px;&quot;&gt;_cond&lt;/font&gt;&lt;/b&gt;" style="text;html=1;align=center;verticalAlign=middle;resizable=0;points=[];autosize=1;strokeColor=none;fillColor=none;" vertex="1" parent="1">
          <mxGeometry x="161.5" y="-19" width="65" height="31" as="geometry" />
        </mxCell>
      </root>
    </mxGraphModel>
  </diagram>
</mxfile>
